<svg width="484" height="484" viewBox="0 0 484 484" fill="none" xmlns="http://www.w3.org/2000/svg">
<g clip-path="url(#clip0_1966_31309)">
<g filter="url(#filter0_ii_1966_31309)">
<path d="M243.18 1.99999C376.381 1.99998 484.361 109.98 484.361 243.18C484.361 376.381 376.381 484.361 243.18 484.361C109.98 484.361 2 376.381 1.99999 243.18C1.99998 109.98 109.98 2 243.18 1.99999Z" fill="#320101"/>
</g>
<path d="M4.49999 243.18C4.50012 111.361 111.361 4.49951 243.181 4.4995C375 4.49963 481.861 111.361 481.861 243.18C481.861 375 375 481.861 243.181 481.861C111.361 481.861 4.5 375 4.49999 243.18Z" stroke="#320101" stroke-width="5"/>
<g clip-path="url(#clip1_1966_31309)">
<path d="M244.031 273.189H248.631C253.815 273.189 258.025 277.411 258.025 282.611V359.37C258.025 364.57 253.815 368.792 248.631 368.792H244.031C238.846 368.792 234.636 364.57 234.636 359.37V282.611C234.636 277.411 238.846 273.189 244.031 273.189Z" fill="url(#paint0_linear_1966_31309)"/>
<path d="M248.631 274.966C252.841 274.966 256.253 278.388 256.253 282.611V359.37C256.253 363.593 252.841 367.015 248.631 367.015H244.031C239.821 367.015 236.408 363.593 236.408 359.37V282.611C236.408 278.388 239.821 274.966 244.031 274.966H248.631ZM248.631 271.412H244.031C237.872 271.412 232.865 276.437 232.865 282.611V359.37C232.865 365.547 237.875 370.569 244.031 370.569H248.631C254.79 370.569 259.797 365.544 259.797 359.37V282.611C259.797 276.434 254.786 271.412 248.631 271.412Z" fill="#320101"/>
<path d="M221.503 292.949C215.893 292.949 210.599 291.496 206.197 288.745C201.463 285.784 198.011 281.448 196.218 276.203L196.19 276.117L196.169 276.029C194.457 268.643 195.052 259.972 195.679 250.788C196.342 241.135 197.026 231.152 194.981 222.263C193.624 216.364 192.309 210.947 191.151 206.171C183.134 173.172 180.136 160.821 197.582 134.852C207.562 120.003 226.106 110.777 245.98 110.777C256.725 110.777 267.023 113.546 275.758 118.777C285.376 124.542 292.666 133.281 297.425 144.75C301.547 154.684 303.885 166.998 304.382 181.349C305.285 207.5 300.062 237.087 294.828 262.584L294.813 262.644L294.796 262.705C294.615 263.351 294.441 263.98 294.268 264.595C291.461 274.707 289.611 281.385 279.221 288.727L279.139 288.784L279.054 288.83C275.014 291.055 271.318 292.139 267.749 292.139C263.235 292.139 259.698 290.437 256.275 288.788C253.121 287.27 250.14 285.838 246.558 285.838C243.187 285.838 239.541 287.135 235.405 289.8L235.303 289.868L235.193 289.921C230.93 291.901 226.195 292.949 221.503 292.949Z" fill="#D72D51"/>
<path d="M245.98 112.554C255.977 112.554 266.027 115.017 274.851 120.305C314.315 143.954 303.34 212.305 293.095 262.228C289.941 273.48 288.683 279.877 278.207 287.281C274.107 289.541 270.723 290.369 267.757 290.369C259.578 290.369 254.574 284.068 246.561 284.068C243.205 284.068 239.318 285.173 234.449 288.311C230.317 290.23 225.862 291.172 221.503 291.172C211.166 291.172 201.392 285.855 197.895 275.623C194.45 260.767 200.754 239.44 196.707 221.862C186.154 176.004 179.527 164.912 199.053 135.847C208.969 121.087 227.375 112.554 245.98 112.554ZM245.98 109C236.174 109 226.397 111.235 217.711 115.468C208.728 119.847 201.258 126.205 196.116 133.86C187.284 147.007 183.749 156.726 183.299 167.693C182.859 178.391 185.321 189.68 189.425 206.59C190.584 211.363 191.898 216.772 193.252 222.661C195.237 231.294 194.563 241.139 193.911 250.663C193.273 259.982 192.671 268.785 194.439 276.43L194.482 276.608L194.542 276.778C196.47 282.415 200.177 287.074 205.262 290.252C209.947 293.18 215.564 294.726 221.503 294.726C226.45 294.726 231.44 293.624 235.937 291.535L236.157 291.432L236.362 291.3C240.204 288.823 243.538 287.622 246.558 287.622C249.737 287.622 252.412 288.908 255.509 290.397C258.943 292.05 262.834 293.923 267.753 293.923C271.627 293.923 275.606 292.768 279.912 290.394L280.086 290.298L280.249 290.184C291.153 282.475 293.074 275.552 295.983 265.075C296.153 264.46 296.327 263.835 296.507 263.188L296.543 263.067L296.568 262.943C298.818 251.982 301.653 237.51 303.63 222.789C305.75 207.002 306.575 193.426 306.157 181.289C305.654 166.724 303.269 154.204 299.066 144.071C294.158 132.24 286.624 123.22 276.673 117.252C267.657 111.854 257.047 109 245.98 109Z" fill="#320101"/>
<path d="M294.792 153.841C281.407 104.629 210.691 98.5299 191.069 159.926C184.269 181.2 197.845 205.293 201.137 232.804C202.314 242.649 200.549 252.554 198.199 270.776C196.041 287.512 221.833 294.35 227.63 289.619C236.235 282.603 239.64 268.825 241.373 252.22C245.615 211.498 248.131 170.677 247.837 160.402C247.802 159.133 248.496 158.102 249.336 158.181C250.073 158.248 250.651 159.162 250.665 160.278C250.81 174.302 252.235 258.82 265.304 281.193C269.812 288.908 271.244 289.502 272.913 289.182C280.355 287.76 290.277 279.586 293.162 257.676C297.131 227.548 304.463 189.392 294.796 153.845L294.792 153.841Z" fill="#EA475E"/>
<path d="M279.306 276.707C279.306 276.707 274.043 279.604 271.775 272.812C269.507 266.02 278.796 259.037 281.595 253.834C285.22 247.092 286.248 239.842 287.077 222.26C287.903 204.682 290.848 212.522 290.214 233.64C289.579 254.758 286.712 273.228 279.309 276.707H279.306Z" fill="white"/>
<path d="M226.181 131.294C214.309 133.064 193.305 167.208 201.509 173.598C203.781 176.1 207.122 173.854 208.175 167.563C208.703 164.414 206.715 159.83 209.933 152.192C216.765 135.964 230.076 131.035 226.181 131.298V131.294Z" fill="white"/>
</g>
</g>
<defs>
<filter id="filter0_ii_1966_31309" x="-6" y="-6" width="498.361" height="498.361" filterUnits="userSpaceOnUse" color-interpolation-filters="sRGB">
<feFlood flood-opacity="0" result="BackgroundImageFix"/>
<feBlend mode="normal" in="SourceGraphic" in2="BackgroundImageFix" result="shape"/>
<feColorMatrix in="SourceAlpha" type="matrix" values="0 0 0 0 0 0 0 0 0 0 0 0 0 0 0 0 0 0 127 0" result="hardAlpha"/>
<feOffset dx="-8" dy="-8"/>
<feGaussianBlur stdDeviation="6"/>
<feComposite in2="hardAlpha" operator="arithmetic" k2="-1" k3="1"/>
<feColorMatrix type="matrix" values="0 0 0 0 0.526487 0 0 0 0 0.197822 0 0 0 0 0.197822 0 0 0 1 0"/>
<feBlend mode="normal" in2="shape" result="effect1_innerShadow_1966_31309"/>
<feColorMatrix in="SourceAlpha" type="matrix" values="0 0 0 0 0 0 0 0 0 0 0 0 0 0 0 0 0 0 127 0" result="hardAlpha"/>
<feOffset dx="8" dy="8"/>
<feGaussianBlur stdDeviation="6"/>
<feComposite in2="hardAlpha" operator="arithmetic" k2="-1" k3="1"/>
<feColorMatrix type="matrix" values="0 0 0 0 0.622529 0 0 0 0 0.137913 0 0 0 0 0.137913 0 0 0 1 0"/>
<feBlend mode="normal" in2="effect1_innerShadow_1966_31309" result="effect2_innerShadow_1966_31309"/>
</filter>
<linearGradient id="paint0_linear_1966_31309" x1="247.114" y1="364.147" x2="244.576" y2="225.007" gradientUnits="userSpaceOnUse">
<stop stop-color="#C69C6D"/>
<stop offset="1" stop-color="#E8C7B5"/>
</linearGradient>
<clipPath id="clip0_1966_31309">
<rect width="484" height="484" fill="white"/>
</clipPath>
<clipPath id="clip1_1966_31309">
<rect width="123.26" height="261.569" fill="white" transform="translate(183 109)"/>
</clipPath>
</defs>
</svg>
